<mxfile host="app.diagrams.net" modified="2021-10-15T17:32:57.931Z" agent="5.0 (Macintosh; Intel Mac OS X 10_15_7) AppleWebKit/537.36 (KHTML, like Gecko) Chrome/92.0.4515.107 Safari/537.36" etag="hL0xdTjmZm_StDw-CKFV" version="14.6.13" type="github">
  <diagram id="VqHFN98gS3umUqheKW3D" name="Page-1">
    <mxGraphModel dx="946" dy="589" grid="1" gridSize="10" guides="1" tooltips="1" connect="1" arrows="1" fold="1" page="1" pageScale="1" pageWidth="827" pageHeight="1169" math="0" shadow="0">
      <root>
        <mxCell id="0" />
        <mxCell id="1" parent="0" />
        <mxCell id="KvMLYwu-Eh32X6NdjpXx-1" value="&lt;font style=&quot;font-size: 36px&quot;&gt;记忆核心技法&lt;/font&gt;" style="text;html=1;strokeColor=none;fillColor=none;align=center;verticalAlign=middle;whiteSpace=wrap;rounded=0;" vertex="1" parent="1">
          <mxGeometry x="250" y="145" width="260" height="70" as="geometry" />
        </mxCell>
        <mxCell id="KvMLYwu-Eh32X6NdjpXx-11" value="" style="shape=singleArrow;direction=south;whiteSpace=wrap;html=1;" vertex="1" parent="1">
          <mxGeometry x="356" y="199" width="50" height="61" as="geometry" />
        </mxCell>
        <mxCell id="KvMLYwu-Eh32X6NdjpXx-12" value="&lt;font style=&quot;font-size: 24px&quot;&gt;简单思维&lt;/font&gt;" style="text;html=1;strokeColor=none;fillColor=none;align=center;verticalAlign=middle;whiteSpace=wrap;rounded=0;" vertex="1" parent="1">
          <mxGeometry x="327.5" y="270" width="105" height="40" as="geometry" />
        </mxCell>
        <mxCell id="KvMLYwu-Eh32X6NdjpXx-13" value="&lt;font style=&quot;font-size: 24px&quot;&gt;复习思维&lt;/font&gt;" style="text;html=1;strokeColor=none;fillColor=none;align=center;verticalAlign=middle;whiteSpace=wrap;rounded=0;" vertex="1" parent="1">
          <mxGeometry x="550" y="275" width="120" height="30" as="geometry" />
        </mxCell>
      </root>
    </mxGraphModel>
  </diagram>
</mxfile>
